<svg xmlns="http://www.w3.org/2000/svg" version="1.1" xmlns:xlink="http://www.w3.org/1999/xlink" xmlns:svgjs="http://svgjs.dev/svgjs" width="2000" height="494" viewBox="0 0 2000 494"><g transform="matrix(1,0,0,1,-1.2121212121213603,0.09449090248025982)"><svg viewBox="0 0 396 98" data-background-color="#ffffff" preserveAspectRatio="xMidYMid meet" height="494" width="2000" xmlns="http://www.w3.org/2000/svg" xmlns:xlink="http://www.w3.org/1999/xlink"><g id="tight-bounds" transform="matrix(1,0,0,1,0.24000000000003752,-0.01874515879163141)"><svg viewBox="0 0 395.5199999999999 98.03749031758326" height="98.03749031758326" width="395.5199999999999"><g><svg viewBox="0 0 395.5199999999999 98.03749031758326" height="98.03749031758326" width="395.5199999999999"><g><svg viewBox="0 0 395.5199999999999 98.03749031758326" height="98.03749031758326" width="395.5199999999999"><g id="textblocktransform"><svg viewBox="0 0 395.5199999999999 98.03749031758326" height="98.03749031758326" width="395.5199999999999" id="textblock"><g><svg viewBox="0 0 395.5199999999999 98.03749031758326" height="98.03749031758326" width="395.5199999999999"><g transform="matrix(1,0,0,1,0,0)"><svg width="395.5199999999999" viewBox="3.5 -35 322.75 76" height="98.03749031758326" data-palette-color="#e9e6e6"><svg></svg><svg></svg><g class="undefined-text-0" data-fill-palette-color="primary" id="text-0"><path xmlns="http://www.w3.org/2000/svg" d="M3.5-35h18c2.5 0 4.743 0.273 6.73 0.82 1.98 0.553 3.653 1.353 5.02 2.4 1.367 1.053 2.417 2.337 3.15 3.85 0.733 1.52 1.1 3.247 1.1 5.18v0c0 1.933-0.367 3.66-1.1 5.18-0.733 1.513-1.783 2.793-3.15 3.84-1.367 1.053-3.04 1.853-5.02 2.4-1.987 0.553-4.23 0.83-6.73 0.83v0h-10.75v10.5h-7.25zM21.5-31.25h-10.75v17h10.75c2.633 0 4.677-0.69 6.13-2.07 1.447-1.387 2.17-3.53 2.17-6.43v0c0-2.9-0.723-5.043-2.17-6.43-1.453-1.38-3.497-2.07-6.13-2.07zM69.75-35v4.25l-23.25 27h23.75v3.75h-32.5v-4.25l23.25-27h-22.75v-3.75z" fill="#e9e6e6" fill-rule="nonzero" stroke="none" stroke-width="1" stroke-linecap="butt" stroke-linejoin="miter" stroke-miterlimit="10" stroke-dasharray="" stroke-dashoffset="0" font-family="none" font-weight="none" font-size="none" text-anchor="none" style="mix-blend-mode: normal" data-fill-palette-color="primary" opacity="1"></path><path xmlns="http://www.w3.org/2000/svg" d="M3.5 5h18c2.5 0 4.743 0.273 6.73 0.82 1.98 0.553 3.653 1.353 5.02 2.4 1.367 1.053 2.417 2.337 3.15 3.85 0.733 1.52 1.1 3.247 1.1 5.18v0c0 1.933-0.367 3.66-1.1 5.18-0.733 1.513-1.783 2.793-3.15 3.84-1.367 1.053-3.04 1.853-5.02 2.4-1.987 0.553-4.23 0.83-6.73 0.83v0h-10.75v10.5h-7.25zM21.5 8.75h-10.75v17h10.75c2.633 0 4.677-0.69 6.13-2.07 1.447-1.387 2.17-3.53 2.17-6.43v0c0-2.9-0.723-5.043-2.17-6.43-1.453-1.38-3.497-2.07-6.13-2.07zM62 7.5v0c-1.7 0-3.29 0.3-4.77 0.9-1.487 0.6-2.78 1.517-3.88 2.75-1.1 1.233-1.973 2.79-2.62 4.67-0.653 1.887-0.98 4.113-0.98 6.68v0c0 2.567 0.327 4.79 0.98 6.67 0.647 1.887 1.52 3.447 2.62 4.68 1.1 1.233 2.393 2.15 3.88 2.75 1.48 0.6 3.07 0.9 4.77 0.9v0c1.7 0 3.293-0.3 4.78-0.9 1.48-0.6 2.77-1.517 3.87-2.75 1.1-1.233 1.977-2.793 2.63-4.68 0.647-1.88 0.97-4.103 0.97-6.67v0c0-2.567-0.323-4.793-0.97-6.68-0.653-1.88-1.53-3.437-2.63-4.67-1.1-1.233-2.39-2.15-3.87-2.75-1.487-0.6-3.08-0.9-4.78-0.9zM62 4v0c3 0 5.723 0.4 8.17 1.2 2.453 0.8 4.553 1.983 6.3 3.55 1.753 1.567 3.113 3.5 4.08 5.8 0.967 2.3 1.45 4.95 1.45 7.95v0c0 3-0.483 5.65-1.45 7.95-0.967 2.3-2.327 4.233-4.08 5.8-1.747 1.567-3.847 2.75-6.3 3.55-2.447 0.8-5.17 1.2-8.17 1.2v0c-3 0-5.733-0.4-8.2-1.2-2.467-0.8-4.573-1.983-6.32-3.55-1.753-1.567-3.107-3.5-4.06-5.8-0.947-2.3-1.42-4.95-1.42-7.95v0c0-3 0.473-5.65 1.42-7.95 0.953-2.3 2.307-4.233 4.06-5.8 1.747-1.567 3.853-2.75 6.32-3.55 2.467-0.8 5.2-1.2 8.2-1.2zM88 5h18c2.5 0 4.74 0.273 6.72 0.82 1.987 0.553 3.663 1.353 5.03 2.4 1.367 1.053 2.417 2.337 3.15 3.85 0.733 1.52 1.1 3.247 1.1 5.18v0c0 2.667-0.667 4.917-2 6.75-1.333 1.833-3.25 3.233-5.75 4.2v0l8.25 11.8h-8.25l-7.35-10.5h-0.9-10.75v10.5h-7.25zM106 8.75h-10.75v17h10.75c2.633 0 4.667-0.69 6.1-2.07 1.433-1.387 2.15-3.53 2.15-6.43v0c0-2.9-0.717-5.043-2.15-6.43-1.433-1.38-3.467-2.07-6.1-2.07zM157.25 5v3.75h-13.5v31.25h-7.25v-31.25h-13.5v-3.75zM192.75 8.75h-24.25v12h18.25v3.75h-18.25v15.5h-7.25v-35h31.5zM213.75 7.5v0c-1.7 0-3.293 0.3-4.78 0.9-1.48 0.6-2.77 1.517-3.87 2.75-1.1 1.233-1.977 2.79-2.63 4.67-0.647 1.887-0.97 4.113-0.97 6.68v0c0 2.567 0.323 4.79 0.97 6.67 0.653 1.887 1.53 3.447 2.63 4.68 1.1 1.233 2.39 2.15 3.87 2.75 1.487 0.6 3.08 0.9 4.78 0.9v0c1.7 0 3.293-0.3 4.78-0.9 1.48-0.6 2.77-1.517 3.87-2.75 1.1-1.233 1.977-2.793 2.63-4.68 0.647-1.88 0.97-4.103 0.97-6.67v0c0-2.567-0.323-4.793-0.97-6.68-0.653-1.88-1.53-3.437-2.63-4.67-1.1-1.233-2.39-2.15-3.87-2.75-1.487-0.6-3.08-0.9-4.78-0.9zM213.75 4v0c3 0 5.727 0.4 8.18 1.2 2.447 0.8 4.543 1.983 6.29 3.55 1.753 1.567 3.113 3.5 4.08 5.8 0.967 2.3 1.45 4.95 1.45 7.95v0c0 3-0.483 5.65-1.45 7.95-0.967 2.3-2.327 4.233-4.08 5.8-1.747 1.567-3.843 2.75-6.29 3.55-2.453 0.8-5.18 1.2-8.18 1.2v0c-3 0-5.733-0.4-8.2-1.2-2.467-0.8-4.577-1.983-6.33-3.55-1.747-1.567-3.093-3.5-4.04-5.8-0.953-2.3-1.43-4.95-1.43-7.95v0c0-3 0.477-5.65 1.43-7.95 0.947-2.3 2.293-4.233 4.04-5.8 1.753-1.567 3.863-2.75 6.33-3.55 2.467-0.8 5.2-1.2 8.2-1.2zM247 36.25h21.5v3.75h-28.75v-35h7.25zM280.25 5v35h-7.25v-35zM306.25 7.5v0c-1.7 0-3.29 0.3-4.77 0.9-1.487 0.6-2.78 1.517-3.88 2.75-1.1 1.233-1.973 2.79-2.62 4.67-0.653 1.887-0.98 4.113-0.98 6.68v0c0 2.567 0.327 4.79 0.98 6.67 0.647 1.887 1.52 3.447 2.62 4.68 1.1 1.233 2.393 2.15 3.88 2.75 1.48 0.6 3.07 0.9 4.77 0.9v0c1.7 0 3.29-0.3 4.77-0.9 1.487-0.6 2.78-1.517 3.88-2.75 1.1-1.233 1.973-2.793 2.62-4.68 0.653-1.88 0.98-4.103 0.98-6.67v0c0-2.567-0.327-4.793-0.98-6.68-0.647-1.88-1.52-3.437-2.62-4.67-1.1-1.233-2.393-2.15-3.88-2.75-1.48-0.6-3.07-0.9-4.77-0.9zM306.25 4v0c3 0 5.727 0.4 8.18 1.2 2.447 0.8 4.547 1.983 6.3 3.55 1.747 1.567 3.103 3.5 4.07 5.8 0.967 2.3 1.45 4.95 1.45 7.95v0c0 3-0.483 5.65-1.45 7.95-0.967 2.3-2.323 4.233-4.07 5.8-1.753 1.567-3.853 2.75-6.3 3.55-2.453 0.8-5.18 1.2-8.18 1.2v0c-3 0-5.733-0.4-8.2-1.2-2.467-0.8-4.573-1.983-6.32-3.55-1.753-1.567-3.103-3.5-4.05-5.8-0.953-2.3-1.43-4.95-1.43-7.95v0c0-3 0.477-5.65 1.43-7.95 0.947-2.3 2.297-4.233 4.05-5.8 1.747-1.567 3.853-2.75 6.32-3.55 2.467-0.8 5.2-1.2 8.2-1.2z" fill="#ce3855" fill-rule="nonzero" stroke="none" stroke-width="1" stroke-linecap="butt" stroke-linejoin="miter" stroke-miterlimit="10" stroke-dasharray="" stroke-dashoffset="0" font-family="none" font-weight="none" font-size="none" text-anchor="none" style="mix-blend-mode: normal" data-fill-palette-color="secondary" opacity="1"></path></g></svg></g></svg></g></svg></g></svg></g></svg></g><defs></defs></svg><rect width="395.5199999999999" height="98.03749031758326" fill="none" stroke="none" visibility="hidden"></rect></g></svg></g></svg>